# xmcd
#
# Track frame offsets:
#	150
#	13157
#	40672
#	64255
#	94087
#	114127
#	125512
#	144332
#	209807
#	224125
#	238752
#	251650
#	274145
#
# Disc length: 3911 seconds
#
# Revision: 8
# Processed by: cddbd v1.5.2PL0 Copyright (c) Steve Scherf et al.
# Submitted via: audiograbber 1.83.01
#
DISCID=c90f450d
DTITLE=James Brown - James Brown -  AT STUDIO 54´
DYEAR=1994
DGENRE=Soul
TTITLE0=James Brown - Gonna Have A Funky Good Time
TTITLE1=Get Up Off A That Thing
TTITLE2=Body Heat
TTITLE3=Sex Machine
TTITLE4=Try Me
TTITLE5=Papa's Got A Brand New Bag
TTITLE6=Get On The Good Foot
TTITLE7=Medley: It's A Man's Man's Man's World, Lost Someone, It's A Man's Man'
TTITLE7=s Man's World
TTITLE8=I Got The Feelin'
TTITLE9=Cold Sweat
TTITLE10=Please, Please, Please
TTITLE11=Jam
TTITLE12=Medley: The Payback, It's Too Funky In Here
EXTD=YEAR: 2001
EXTT0=
EXTT1=
EXTT2=
EXTT3=
EXTT4=
EXTT5=
EXTT6=
EXTT7=
EXTT8=
EXTT9=
EXTT10=
EXTT11=
EXTT12=
PLAYORDER=
